<mxfile host="app.diagrams.net" agent="Mozilla/5.0 (Windows NT 10.0; Win64; x64; rv:131.0) Gecko/20100101 Firefox/131.0" version="24.7.17">
  <diagram name="Page-1" id="fVa6ItMzhb7vIlNIeozX">
    <mxGraphModel dx="1647" dy="836" grid="1" gridSize="10" guides="1" tooltips="1" connect="1" arrows="1" fold="1" page="1" pageScale="1" pageWidth="850" pageHeight="1100" math="0" shadow="0">
      <root>
        <mxCell id="0" />
        <mxCell id="1" parent="0" />
        <mxCell id="UzWk5PqR8u7dupWHHTf4-1" value="" style="ellipse;whiteSpace=wrap;html=1;" vertex="1" parent="1">
          <mxGeometry x="90" y="30" width="750" height="440" as="geometry" />
        </mxCell>
        <mxCell id="UzWk5PqR8u7dupWHHTf4-2" value="Ucloud Mysql" style="shape=cylinder3;whiteSpace=wrap;html=1;boundedLbl=1;backgroundOutline=1;size=15;" vertex="1" parent="1">
          <mxGeometry x="360" y="40" width="160" height="160" as="geometry" />
        </mxCell>
        <mxCell id="UzWk5PqR8u7dupWHHTf4-3" value="Memcache" style="shape=cylinder3;whiteSpace=wrap;html=1;boundedLbl=1;backgroundOutline=1;size=15;" vertex="1" parent="1">
          <mxGeometry x="690" y="270" width="60" height="80" as="geometry" />
        </mxCell>
        <mxCell id="UzWk5PqR8u7dupWHHTf4-4" value="Redis" style="shape=cylinder3;whiteSpace=wrap;html=1;boundedLbl=1;backgroundOutline=1;size=15;" vertex="1" parent="1">
          <mxGeometry x="120" y="270" width="60" height="80" as="geometry" />
        </mxCell>
        <mxCell id="UzWk5PqR8u7dupWHHTf4-5" value="&lt;div&gt;Web (UI + API)&lt;/div&gt;" style="rounded=0;whiteSpace=wrap;html=1;" vertex="1" parent="1">
          <mxGeometry x="380" y="340" width="120" height="60" as="geometry" />
        </mxCell>
        <mxCell id="UzWk5PqR8u7dupWHHTf4-6" value="" style="endArrow=classic;startArrow=classic;html=1;rounded=0;entryX=1;entryY=0.5;entryDx=0;entryDy=0;exitX=0;exitY=0;exitDx=0;exitDy=52.5;exitPerimeter=0;" edge="1" parent="1" source="UzWk5PqR8u7dupWHHTf4-3" target="UzWk5PqR8u7dupWHHTf4-5">
          <mxGeometry width="50" height="50" relative="1" as="geometry">
            <mxPoint x="170" y="410" as="sourcePoint" />
            <mxPoint x="220" y="360" as="targetPoint" />
          </mxGeometry>
        </mxCell>
        <mxCell id="UzWk5PqR8u7dupWHHTf4-7" value="" style="endArrow=classic;startArrow=classic;html=1;rounded=0;exitX=1;exitY=0.5;exitDx=0;exitDy=0;exitPerimeter=0;entryX=0;entryY=0.5;entryDx=0;entryDy=0;" edge="1" parent="1" source="UzWk5PqR8u7dupWHHTf4-4" target="UzWk5PqR8u7dupWHHTf4-5">
          <mxGeometry width="50" height="50" relative="1" as="geometry">
            <mxPoint x="170" y="540" as="sourcePoint" />
            <mxPoint x="360" y="520" as="targetPoint" />
          </mxGeometry>
        </mxCell>
        <mxCell id="UzWk5PqR8u7dupWHHTf4-8" value="" style="endArrow=classic;startArrow=classic;html=1;rounded=0;entryX=0.5;entryY=0;entryDx=0;entryDy=0;exitX=0.5;exitY=1;exitDx=0;exitDy=0;exitPerimeter=0;" edge="1" parent="1" source="UzWk5PqR8u7dupWHHTf4-2" target="UzWk5PqR8u7dupWHHTf4-5">
          <mxGeometry width="50" height="50" relative="1" as="geometry">
            <mxPoint x="180" y="330" as="sourcePoint" />
            <mxPoint x="370" y="310" as="targetPoint" />
          </mxGeometry>
        </mxCell>
        <mxCell id="UzWk5PqR8u7dupWHHTf4-9" value="&lt;div&gt;Fee server&lt;/div&gt;" style="rounded=0;whiteSpace=wrap;html=1;" vertex="1" parent="1">
          <mxGeometry x="560" y="640" width="120" height="60" as="geometry" />
        </mxCell>
        <mxCell id="UzWk5PqR8u7dupWHHTf4-10" value="&lt;div&gt;Box server&lt;/div&gt;" style="rounded=0;whiteSpace=wrap;html=1;" vertex="1" parent="1">
          <mxGeometry x="200" y="640" width="120" height="60" as="geometry" />
        </mxCell>
        <mxCell id="UzWk5PqR8u7dupWHHTf4-11" value="&lt;div&gt;Transt server&lt;/div&gt;" style="rounded=0;whiteSpace=wrap;html=1;" vertex="1" parent="1">
          <mxGeometry x="380" y="580" width="120" height="50" as="geometry" />
        </mxCell>
        <mxCell id="UzWk5PqR8u7dupWHHTf4-12" value="Box client" style="whiteSpace=wrap;html=1;aspect=fixed;" vertex="1" parent="1">
          <mxGeometry x="220" y="760" width="80" height="80" as="geometry" />
        </mxCell>
        <mxCell id="UzWk5PqR8u7dupWHHTf4-13" value="&lt;div&gt;Fee Client&lt;/div&gt;" style="whiteSpace=wrap;html=1;aspect=fixed;" vertex="1" parent="1">
          <mxGeometry x="580" y="770" width="80" height="80" as="geometry" />
        </mxCell>
        <mxCell id="UzWk5PqR8u7dupWHHTf4-14" value="&lt;div&gt;Box Manage&lt;/div&gt;" style="whiteSpace=wrap;html=1;aspect=fixed;" vertex="1" parent="1">
          <mxGeometry x="90" y="690" width="80" height="80" as="geometry" />
        </mxCell>
        <mxCell id="UzWk5PqR8u7dupWHHTf4-15" value="&lt;div&gt;Fee manage&lt;/div&gt;" style="whiteSpace=wrap;html=1;aspect=fixed;" vertex="1" parent="1">
          <mxGeometry x="710" y="700" width="80" height="80" as="geometry" />
        </mxCell>
        <mxCell id="UzWk5PqR8u7dupWHHTf4-16" value="" style="endArrow=classic;startArrow=classic;html=1;rounded=0;exitX=0.5;exitY=0;exitDx=0;exitDy=0;entryX=0.5;entryY=1;entryDx=0;entryDy=0;" edge="1" parent="1" source="UzWk5PqR8u7dupWHHTf4-13" target="UzWk5PqR8u7dupWHHTf4-9">
          <mxGeometry width="50" height="50" relative="1" as="geometry">
            <mxPoint x="420" y="760" as="sourcePoint" />
            <mxPoint x="420" y="700" as="targetPoint" />
          </mxGeometry>
        </mxCell>
        <mxCell id="UzWk5PqR8u7dupWHHTf4-17" value="" style="endArrow=classic;startArrow=classic;html=1;rounded=0;exitX=0.5;exitY=0;exitDx=0;exitDy=0;entryX=0;entryY=1;entryDx=0;entryDy=0;" edge="1" parent="1" source="UzWk5PqR8u7dupWHHTf4-10" target="UzWk5PqR8u7dupWHHTf4-5">
          <mxGeometry width="50" height="50" relative="1" as="geometry">
            <mxPoint x="250" y="630" as="sourcePoint" />
            <mxPoint x="460" y="490" as="targetPoint" />
          </mxGeometry>
        </mxCell>
        <mxCell id="UzWk5PqR8u7dupWHHTf4-18" value="" style="endArrow=classic;startArrow=classic;html=1;rounded=0;exitX=0.5;exitY=0;exitDx=0;exitDy=0;entryX=0.5;entryY=1;entryDx=0;entryDy=0;" edge="1" parent="1" source="UzWk5PqR8u7dupWHHTf4-11" target="UzWk5PqR8u7dupWHHTf4-5">
          <mxGeometry width="50" height="50" relative="1" as="geometry">
            <mxPoint x="590" y="640" as="sourcePoint" />
            <mxPoint x="750" y="400" as="targetPoint" />
          </mxGeometry>
        </mxCell>
        <mxCell id="UzWk5PqR8u7dupWHHTf4-19" value="" style="endArrow=classic;startArrow=classic;html=1;rounded=0;exitX=0.5;exitY=0;exitDx=0;exitDy=0;entryX=1;entryY=1;entryDx=0;entryDy=0;" edge="1" parent="1" source="UzWk5PqR8u7dupWHHTf4-9" target="UzWk5PqR8u7dupWHHTf4-5">
          <mxGeometry width="50" height="50" relative="1" as="geometry">
            <mxPoint x="540" y="640" as="sourcePoint" />
            <mxPoint x="420" y="400" as="targetPoint" />
          </mxGeometry>
        </mxCell>
        <mxCell id="UzWk5PqR8u7dupWHHTf4-20" value="" style="endArrow=classic;startArrow=classic;html=1;rounded=0;exitX=1;exitY=1;exitDx=0;exitDy=0;entryX=0;entryY=0.5;entryDx=0;entryDy=0;" edge="1" parent="1" source="UzWk5PqR8u7dupWHHTf4-14" target="UzWk5PqR8u7dupWHHTf4-12">
          <mxGeometry width="50" height="50" relative="1" as="geometry">
            <mxPoint x="400" y="600" as="sourcePoint" />
            <mxPoint x="450" y="550" as="targetPoint" />
          </mxGeometry>
        </mxCell>
        <mxCell id="UzWk5PqR8u7dupWHHTf4-21" value="" style="endArrow=classic;startArrow=classic;html=1;rounded=0;exitX=0.5;exitY=0;exitDx=0;exitDy=0;entryX=0;entryY=0.5;entryDx=0;entryDy=0;" edge="1" parent="1" source="UzWk5PqR8u7dupWHHTf4-14" target="UzWk5PqR8u7dupWHHTf4-10">
          <mxGeometry width="50" height="50" relative="1" as="geometry">
            <mxPoint x="400" y="600" as="sourcePoint" />
            <mxPoint x="450" y="550" as="targetPoint" />
          </mxGeometry>
        </mxCell>
        <mxCell id="UzWk5PqR8u7dupWHHTf4-22" value="" style="endArrow=classic;startArrow=classic;html=1;rounded=0;exitX=1;exitY=0.5;exitDx=0;exitDy=0;entryX=0.5;entryY=0;entryDx=0;entryDy=0;" edge="1" parent="1" source="UzWk5PqR8u7dupWHHTf4-9" target="UzWk5PqR8u7dupWHHTf4-15">
          <mxGeometry width="50" height="50" relative="1" as="geometry">
            <mxPoint x="400" y="600" as="sourcePoint" />
            <mxPoint x="450" y="550" as="targetPoint" />
          </mxGeometry>
        </mxCell>
        <mxCell id="UzWk5PqR8u7dupWHHTf4-23" value="" style="endArrow=classic;startArrow=classic;html=1;rounded=0;entryX=0;entryY=1;entryDx=0;entryDy=0;exitX=1;exitY=0.5;exitDx=0;exitDy=0;" edge="1" parent="1" source="UzWk5PqR8u7dupWHHTf4-13" target="UzWk5PqR8u7dupWHHTf4-15">
          <mxGeometry width="50" height="50" relative="1" as="geometry">
            <mxPoint x="460" y="800" as="sourcePoint" />
            <mxPoint x="545" y="860" as="targetPoint" />
          </mxGeometry>
        </mxCell>
        <mxCell id="UzWk5PqR8u7dupWHHTf4-24" value="" style="endArrow=classic;startArrow=classic;html=1;rounded=0;exitX=0.5;exitY=0;exitDx=0;exitDy=0;entryX=0.5;entryY=1;entryDx=0;entryDy=0;" edge="1" parent="1" source="UzWk5PqR8u7dupWHHTf4-12" target="UzWk5PqR8u7dupWHHTf4-10">
          <mxGeometry width="50" height="50" relative="1" as="geometry">
            <mxPoint x="400" y="600" as="sourcePoint" />
            <mxPoint x="240" y="710" as="targetPoint" />
          </mxGeometry>
        </mxCell>
        <mxCell id="UzWk5PqR8u7dupWHHTf4-25" value="" style="endArrow=classic;startArrow=classic;html=1;rounded=0;exitX=1;exitY=0.5;exitDx=0;exitDy=0;entryX=0;entryY=0.5;entryDx=0;entryDy=0;" edge="1" parent="1" source="UzWk5PqR8u7dupWHHTf4-10" target="UzWk5PqR8u7dupWHHTf4-11">
          <mxGeometry width="50" height="50" relative="1" as="geometry">
            <mxPoint x="330" y="670" as="sourcePoint" />
            <mxPoint x="370" y="630" as="targetPoint" />
          </mxGeometry>
        </mxCell>
        <mxCell id="UzWk5PqR8u7dupWHHTf4-26" value="" style="endArrow=classic;startArrow=classic;html=1;rounded=0;exitX=1;exitY=0.5;exitDx=0;exitDy=0;entryX=0;entryY=0.5;entryDx=0;entryDy=0;" edge="1" parent="1" source="UzWk5PqR8u7dupWHHTf4-11" target="UzWk5PqR8u7dupWHHTf4-9">
          <mxGeometry width="50" height="50" relative="1" as="geometry">
            <mxPoint x="730" y="600" as="sourcePoint" />
            <mxPoint x="780" y="550" as="targetPoint" />
          </mxGeometry>
        </mxCell>
        <mxCell id="UzWk5PqR8u7dupWHHTf4-27" value="&lt;font style=&quot;font-size: 24px;&quot;&gt;&lt;b&gt;Ucloud&lt;br&gt;&lt;/b&gt;&lt;/font&gt;" style="text;html=1;align=center;verticalAlign=middle;whiteSpace=wrap;rounded=0;" vertex="1" parent="1">
          <mxGeometry x="170" y="130" width="60" height="30" as="geometry" />
        </mxCell>
      </root>
    </mxGraphModel>
  </diagram>
</mxfile>
